<svg width="960" height="640" viewBox="0 0 960 640" fill="none" xmlns="http://www.w3.org/2000/svg">
  <defs>
    <linearGradient id="bg" x1="0" y1="0" x2="960" y2="640" gradientUnits="userSpaceOnUse">
      <stop offset="0" stop-color="#FAF7F1"/>
      <stop offset="1" stop-color="#E8EEF8"/>
    </linearGradient>
    <linearGradient id="panel" x1="0" y1="0" x2="1" y2="1">
      <stop offset="0" stop-color="#11253F"/>
      <stop offset="1" stop-color="#1F4E82"/>
    </linearGradient>
    <linearGradient id="line" x1="0" y1="0" x2="1" y2="0">
      <stop offset="0" stop-color="#88A6D4" stop-opacity="0.2"/>
      <stop offset="1" stop-color="#2D5388"/>
    </linearGradient>
    <filter id="shadow" x="145" y="58" width="670" height="535" filterUnits="userSpaceOnUse" color-interpolation-filters="sRGB">
      <feFlood flood-opacity="0" result="BackgroundImageFix"/>
      <feColorMatrix in="SourceAlpha" type="matrix" values="0 0 0 0 0 0 0 0 0 0 0 0 0 0 0 0 0 0 127 0" result="hardAlpha"/>
      <feOffset dy="18"/>
      <feGaussianBlur stdDeviation="24"/>
      <feColorMatrix type="matrix" values="0 0 0 0 0.06 0 0 0 0 0.13 0 0 0 0 0.24 0 0 0 0.28 0"/>
      <feBlend mode="normal" in2="BackgroundImageFix" result="effect1_dropShadow_1_1"/>
      <feBlend mode="normal" in="SourceGraphic" in2="effect1_dropShadow_1_1" result="shape"/>
    </filter>
  </defs>

  <rect width="960" height="640" rx="34" fill="url(#bg)"/>
  <rect x="70" y="74" width="250" height="152" rx="20" fill="#F6F2EA" stroke="#D5D0C4"/>
  <rect x="92" y="102" width="128" height="18" rx="9" fill="#CBD7EA"/>
  <rect x="92" y="133" width="192" height="13" rx="6.5" fill="#DDE6F3"/>
  <rect x="92" y="155" width="173" height="13" rx="6.5" fill="#DDE6F3"/>
  <rect x="92" y="177" width="149" height="13" rx="6.5" fill="#DDE6F3"/>

  <rect x="640" y="426" width="248" height="154" rx="20" fill="#F6F2EA" stroke="#D5D0C4"/>
  <rect x="662" y="448" width="176" height="16" rx="8" fill="#C8D6EB"/>
  <rect x="662" y="480" width="204" height="13" rx="6.5" fill="#DDE6F3"/>
  <rect x="662" y="502" width="189" height="13" rx="6.5" fill="#DDE6F3"/>
  <rect x="662" y="524" width="170" height="13" rx="6.5" fill="#DDE6F3"/>

  <g filter="url(#shadow)">
    <rect x="193" y="88" width="574" height="439" rx="28" fill="url(#panel)"/>
    <rect x="228" y="126" width="183" height="23" rx="11.5" fill="#D2E0F9" fill-opacity="0.26"/>
    <rect x="228" y="164" width="298" height="14" rx="7" fill="#D6E2F4" fill-opacity="0.5"/>
    <rect x="228" y="186" width="241" height="14" rx="7" fill="#D6E2F4" fill-opacity="0.5"/>

    <rect x="228" y="230" width="504" height="2" fill="#FFFFFF" fill-opacity="0.18"/>

    <path d="M228 413C283 377 306 343 349 329C389 316 423 336 462 318C506 298 531 250 574 242C617 234 647 272 696 252" stroke="url(#line)" stroke-width="6" stroke-linecap="round"/>

    <circle cx="349" cy="329" r="9" fill="#8EC2FF"/>
    <circle cx="462" cy="318" r="9" fill="#A7D6A5"/>
    <circle cx="574" cy="242" r="9" fill="#F5D17B"/>
    <circle cx="696" cy="252" r="10" fill="#EAA9A9"/>

    <rect x="228" y="445" width="135" height="54" rx="14" fill="#F1F6FF" fill-opacity="0.12"/>
    <rect x="378" y="445" width="135" height="54" rx="14" fill="#F1F6FF" fill-opacity="0.12"/>
    <rect x="528" y="445" width="135" height="54" rx="14" fill="#F1F6FF" fill-opacity="0.12"/>

    <rect x="249" y="463" width="86" height="12" rx="6" fill="#D4E1F6" fill-opacity="0.72"/>
    <rect x="399" y="463" width="86" height="12" rx="6" fill="#D4E1F6" fill-opacity="0.72"/>
    <rect x="549" y="463" width="86" height="12" rx="6" fill="#D4E1F6" fill-opacity="0.72"/>
  </g>
</svg>
